<svg width="142" height="60" viewBox="0 0 142 60" fill="none" xmlns="http://www.w3.org/2000/svg">
<path d="M2.99127 40.48V4.811H7.6667L20.8383 38.6199V4.811H21.5673V40.48H16.8919L3.6951 6.77166V40.48H2.99127ZM34.2613 40.9827C31.8482 40.9827 29.8708 40.2538 28.3291 38.7958C26.7874 37.3379 26.0165 35.5113 26.0165 33.316C26.0165 30.9699 26.8125 29.0512 28.4045 27.5597C30.0132 26.0515 32.0996 25.2974 34.6635 25.2974H41.375V20.2952C41.375 18.3848 40.9393 16.9018 40.0679 15.846C39.2133 14.7735 38.1156 14.2373 36.775 14.2373C35.5014 14.2373 34.4205 14.7819 33.5324 15.8712C32.6442 16.9604 32.2001 18.4854 32.2001 20.446V21.904H27.8263C27.8263 19.4908 28.6726 17.4967 30.3652 15.9214C32.0745 14.3462 34.2111 13.5586 36.775 13.5586C39.3557 13.5586 41.484 14.3629 43.1597 15.9717C44.8523 17.5637 45.6986 19.6249 45.6986 22.1553V40.48H41.375V36.5587C40.8053 37.9496 39.9003 39.0388 38.6603 39.8264C37.437 40.5973 35.9706 40.9827 34.2613 40.9827ZM35.8701 39.6002C37.4286 39.6002 38.7357 38.9802 39.7914 37.7401C40.8472 36.4833 41.375 34.908 41.375 33.0144V25.951H36.6745C34.7473 25.951 33.2307 26.6213 32.1247 27.9619C31.0187 29.2858 30.4657 31.0035 30.4657 33.1149C30.4657 35.0086 30.9601 36.5671 31.9488 37.7904C32.9542 38.9969 34.2613 39.6002 35.8701 39.6002ZM57.0603 40.48H52.6866V14.74H49.645V14.0613H52.6866V7.32467H57.0603V14.0613H60.1019V14.74H57.0603V40.48ZM83.9315 40.48H79.608V36.0057C79.0047 37.5306 78.0495 38.7456 76.7424 39.6505C75.4353 40.5387 73.9187 40.9827 72.1927 40.9827C69.813 40.9827 67.8524 40.1784 66.3107 38.5696C64.7689 36.9609 63.9981 34.9415 63.9981 32.5117V14.0613H68.397V32.8133C68.397 34.6902 68.9081 36.2654 69.9303 37.539C70.9526 38.8126 72.2597 39.4494 73.8517 39.4494C75.4772 39.4494 76.8429 38.8042 77.949 37.5139C79.055 36.2235 79.608 34.6567 79.608 32.8133V14.0613H83.9315V40.48ZM89.8135 14.0613H94.1873V17.5302C94.7068 16.2901 95.486 15.3181 96.525 14.6143C97.5807 13.9105 98.8041 13.5586 100.195 13.5586C102.156 13.5586 103.764 14.2289 105.021 15.5695C106.278 16.8934 106.906 18.6111 106.906 20.7225H102.482C102.482 19.0803 102.08 17.7229 101.276 16.6504C100.488 15.5779 99.4995 15.0416 98.3097 15.0416C97.1534 15.0416 96.1731 15.5779 95.3687 16.6504C94.5811 17.7229 94.1873 19.0635 94.1873 20.6723V40.48H89.8135V14.0613ZM115.151 40.48H110.778V0.839394H115.151V40.48ZM127.82 40.9827C125.407 40.9827 123.43 40.2538 121.888 38.7958C120.346 37.3379 119.575 35.5113 119.575 33.316C119.575 30.9699 120.371 29.0512 121.963 27.5597C123.572 26.0515 125.658 25.2974 128.222 25.2974H134.934V20.2952C134.934 18.3848 134.498 16.9018 133.627 15.846C132.772 14.7735 131.675 14.2373 130.334 14.2373C129.06 14.2373 127.979 14.7819 127.091 15.8712C126.203 16.9604 125.759 18.4854 125.759 20.446V21.904H121.385C121.385 19.4908 122.231 17.4967 123.924 15.9214C125.633 14.3462 127.77 13.5586 130.334 13.5586C132.915 13.5586 135.043 14.3629 136.719 15.9717C138.411 17.5637 139.257 19.6249 139.257 22.1553V40.48H134.934V36.5587C134.364 37.9496 133.459 39.0388 132.219 39.8264C130.996 40.5973 129.53 40.9827 127.82 40.9827ZM129.429 39.6002C130.987 39.6002 132.295 38.9802 133.35 37.7401C134.406 36.4833 134.934 34.908 134.934 33.0144V25.951H130.233C128.306 25.951 126.79 26.6213 125.684 27.9619C124.578 29.2858 124.025 31.0035 124.025 33.1149C124.025 35.0086 124.519 36.5671 125.508 37.7904C126.513 38.9969 127.82 39.6002 129.429 39.6002Z" fill="#CF0115"/>
<path d="M7.48203 47.1013C7.42256 46.5735 7.17725 46.1647 6.74609 45.8748C6.31494 45.5811 5.77228 45.4343 5.11811 45.4343C4.64979 45.4343 4.24465 45.5086 3.9027 45.6573C3.56075 45.8023 3.29499 46.003 3.10543 46.2595C2.91959 46.5122 2.82667 46.8003 2.82667 47.1236C2.82667 47.395 2.88986 47.6291 3.01623 47.8261C3.14632 48.0231 3.31544 48.1885 3.52358 48.3223C3.73544 48.4524 3.96217 48.562 4.20376 48.6513C4.44536 48.7367 4.67766 48.8074 4.90067 48.8631L6.01573 49.153C6.37998 49.2422 6.75353 49.363 7.13636 49.5154C7.5192 49.6678 7.87416 49.8685 8.20124 50.1176C8.52833 50.3666 8.79222 50.6751 8.99293 51.043C9.19736 51.411 9.29957 51.8515 9.29957 52.3644C9.29957 53.0111 9.13232 53.5854 8.7978 54.0872C8.467 54.5889 7.98567 54.9848 7.3538 55.2747C6.72565 55.5646 5.96555 55.7096 5.07351 55.7096C4.21863 55.7096 3.47898 55.5739 2.85455 55.3026C2.23011 55.0312 1.74135 54.6465 1.38825 54.1485C1.03514 53.6467 0.840009 53.052 0.802841 52.3644H2.53118C2.56463 52.777 2.69844 53.1208 2.9326 53.3958C3.17048 53.6671 3.4734 53.8697 3.84137 54.0035C4.21306 54.1336 4.62005 54.1987 5.06236 54.1987C5.54927 54.1987 5.98228 54.1225 6.3614 53.9701C6.74424 53.814 7.0453 53.5984 7.2646 53.3233C7.48389 53.0446 7.59354 52.7193 7.59354 52.3477C7.59354 52.0094 7.4969 51.7325 7.30362 51.5169C7.11406 51.3014 6.85574 51.123 6.52866 50.9817C6.20529 50.8405 5.83918 50.716 5.43033 50.6082L4.08111 50.2402C3.16676 49.9912 2.44197 49.6251 1.90675 49.1419C1.37524 48.6587 1.10948 48.0194 1.10948 47.224C1.10948 46.5661 1.28789 45.9918 1.64471 45.5012C2.00153 45.0106 2.48472 44.6296 3.09428 44.3583C3.70385 44.0832 4.39147 43.9457 5.15714 43.9457C5.93024 43.9457 6.61229 44.0814 7.20327 44.3527C7.79796 44.624 8.26629 44.9976 8.60824 45.4733C8.95019 45.9454 9.1286 46.488 9.14347 47.1013H7.48203ZM11.3582 55.52V44.1018H13.081V49.5544H13.2204L18.0096 44.1018H20.1783L15.5732 49.2422L20.1951 55.52H18.1211L14.4302 50.4186L13.081 51.9685V55.52H11.3582ZM23.5068 44.1018V55.52H21.784V44.1018H23.5068ZM35.2316 44.1018V55.52H33.6482L27.8444 47.1459H27.7384V55.52H26.0157V44.1018H27.6102L33.4196 52.487H33.5256V44.1018H35.2316ZM41.8997 55.52V44.1018H46.0811C46.8914 44.1018 47.5623 44.2356 48.0938 44.5032C48.6253 44.7671 49.023 45.1258 49.2869 45.5793C49.5508 46.029 49.6828 46.5364 49.6828 47.1013C49.6828 47.5771 49.5954 47.9785 49.4207 48.3056C49.246 48.6289 49.0119 48.8891 48.7182 49.0861C48.4283 49.2794 48.1087 49.4206 47.7593 49.5098V49.6213C48.1384 49.6399 48.5082 49.7626 48.8688 49.9893C49.233 50.2123 49.5341 50.5301 49.772 50.9427C50.0098 51.3553 50.1288 51.857 50.1288 52.448C50.1288 53.0316 49.9912 53.5556 49.7162 54.0202C49.4449 54.4811 49.0249 54.8472 48.4562 55.1186C47.8875 55.3862 47.1609 55.52 46.2763 55.52H41.8997ZM43.6224 54.0426H46.109C46.9341 54.0426 47.5251 53.8827 47.8819 53.5631C48.2388 53.2434 48.4172 52.8439 48.4172 52.3644C48.4172 52.0039 48.3261 51.6731 48.144 51.372C47.9618 51.0709 47.7017 50.8312 47.3634 50.6528C47.0289 50.4744 46.6312 50.3852 46.1703 50.3852H43.6224V54.0426ZM43.6224 49.0415H45.9306C46.3171 49.0415 46.6647 48.9672 46.9732 48.8185C47.2854 48.6698 47.5325 48.4617 47.7147 48.1941C47.9005 47.9227 47.9934 47.6031 47.9934 47.2351C47.9934 46.7631 47.828 46.3672 47.4972 46.0476C47.1664 45.7279 46.6591 45.5681 45.9752 45.5681H43.6224V49.0415ZM52.1721 55.52V44.1018H56.2421C57.1267 44.1018 57.8608 44.2542 58.4443 44.559C59.0316 44.8638 59.4702 45.2856 59.7601 45.8246C60.05 46.3598 60.1949 46.9787 60.1949 47.6812C60.1949 48.3799 60.0481 48.9951 59.7545 49.5266C59.4646 50.0544 59.026 50.4651 58.4387 50.7587C57.8552 51.0523 57.1211 51.1992 56.2365 51.1992H53.1534V49.7161H56.0804C56.6379 49.7161 57.0914 49.6362 57.4408 49.4764C57.7939 49.3166 58.0522 49.0843 58.2157 48.7795C58.3793 48.4747 58.461 48.1086 58.461 47.6812C58.461 47.25 58.3774 46.8765 58.2101 46.5605C58.0466 46.2446 57.7883 46.003 57.4352 45.8357C57.0858 45.6648 56.6268 45.5793 56.0581 45.5793H53.8949V55.52H52.1721ZM57.8087 50.3684L60.6298 55.52H58.6673L55.902 50.3684H57.8087ZM64.014 44.1018V55.52H62.2913V44.1018H64.014ZM74.2502 47.709C74.1424 47.3708 73.9975 47.0679 73.8154 46.8003C73.637 46.5289 73.4232 46.2985 73.1742 46.1089C72.9252 45.9156 72.6408 45.7688 72.3212 45.6685C72.0053 45.5681 71.6577 45.5179 71.2786 45.5179C70.6356 45.5179 70.0558 45.6833 69.5391 46.0141C69.0225 46.3449 68.6136 46.83 68.3126 47.4693C68.0152 48.1049 67.8665 48.8836 67.8665 49.8053C67.8665 50.7308 68.0171 51.5132 68.3181 52.1525C68.6192 52.7918 69.0318 53.2769 69.5558 53.6077C70.0799 53.9385 70.6765 54.1039 71.3455 54.1039C71.9662 54.1039 72.507 53.9775 72.9679 53.7248C73.4325 53.472 73.7912 53.1152 74.044 52.6543C74.3004 52.1897 74.4286 51.6433 74.4286 51.0152L74.8747 51.0988H71.6076V49.6771H76.0957V50.9761C76.0957 51.9351 75.8912 52.7677 75.4824 53.4739C75.0772 54.1764 74.516 54.719 73.7986 55.1019C73.085 55.4847 72.2673 55.6761 71.3455 55.6761C70.3122 55.6761 69.4053 55.4382 68.6248 54.9625C67.848 54.4867 67.2421 53.8121 66.8072 52.9386C66.3724 52.0615 66.1549 51.0207 66.1549 49.8165C66.1549 48.9059 66.2813 48.0881 66.534 47.3634C66.7868 46.6386 67.1418 46.0234 67.5989 45.5179C68.0598 45.0087 68.6006 44.6203 69.2213 44.3527C69.8458 44.0814 70.5278 43.9457 71.2675 43.9457C71.8845 43.9457 72.4587 44.0368 72.9902 44.2189C73.5255 44.401 74.0012 44.6593 74.4175 44.9939C74.8375 45.3284 75.185 45.7261 75.4601 46.187C75.7351 46.6441 75.921 47.1515 76.0176 47.709H74.2502ZM78.2826 55.52V44.1018H80.0053V49.0638H85.6977V44.1018H87.426V55.52H85.6977V50.5413H80.0053V55.52H78.2826ZM89.3718 45.5848V44.1018H98.2086V45.5848H94.646V55.52H92.9288V45.5848H89.3718ZM109.377 44.1018V55.52H107.794L101.99 47.1459H101.884V55.52H100.161V44.1018H101.756L107.565 52.487H107.671V44.1018H109.377ZM113.613 44.1018V55.52H111.89V44.1018H113.613ZM125.338 44.1018V55.52H123.755L117.951 47.1459H117.845V55.52H116.122V44.1018H117.717L123.526 52.487H123.632V44.1018H125.338ZM135.578 47.709C135.471 47.3708 135.326 47.0679 135.143 46.8003C134.965 46.5289 134.751 46.2985 134.502 46.1089C134.253 45.9156 133.969 45.7688 133.649 45.6685C133.333 45.5681 132.986 45.5179 132.607 45.5179C131.964 45.5179 131.384 45.6833 130.867 46.0141C130.351 46.3449 129.942 46.83 129.641 47.4693C129.343 48.1049 129.195 48.8836 129.195 49.8053C129.195 50.7308 129.345 51.5132 129.646 52.1525C129.947 52.7918 130.36 53.2769 130.884 53.6077C131.408 53.9385 132.005 54.1039 132.674 54.1039C133.294 54.1039 133.835 53.9775 134.296 53.7248C134.761 53.472 135.119 53.1152 135.372 52.6543C135.629 52.1897 135.757 51.6433 135.757 51.0152L136.203 51.0988H132.936V49.6771H137.424V50.9761C137.424 51.9351 137.219 52.7677 136.811 53.4739C136.405 54.1764 135.844 54.719 135.127 55.1019C134.413 55.4847 133.595 55.6761 132.674 55.6761C131.64 55.6761 130.733 55.4382 129.953 54.9625C129.176 54.4867 128.57 53.8121 128.135 52.9386C127.7 52.0615 127.483 51.0207 127.483 49.8165C127.483 48.9059 127.609 48.0881 127.862 47.3634C128.115 46.6386 128.47 46.0234 128.927 45.5179C129.388 45.0087 129.929 44.6203 130.549 44.3527C131.174 44.0814 131.856 43.9457 132.596 43.9457C133.213 43.9457 133.787 44.0368 134.318 44.2189C134.854 44.401 135.329 44.6593 135.746 44.9939C136.166 45.3284 136.513 45.7261 136.788 46.187C137.063 46.6441 137.249 47.1515 137.346 47.709H135.578Z" fill="#010100"/>
</svg>
